<?xml version="1.0" standalone="no"?>
<!DOCTYPE svg PUBLIC "-//W3C//DTD SVG 20010904//EN"
 "http://www.w3.org/TR/2001/REC-SVG-20010904/DTD/svg10.dtd">
<svg version="1.0" xmlns="http://www.w3.org/2000/svg"
 width="1024.000000pt" height="1024.000000pt" viewBox="0 0 1024.000000 1024.000000"
 preserveAspectRatio="xMidYMid meet">

<g transform="translate(0.000000,1024.000000) scale(0.100000,-0.100000)"
fill="#ffffff" stroke="none">
<path d="M4805 8783 c-587 -49 -1176 -240 -1640 -532 -832 -522 -1404 -1315
-1631 -2256 -65 -272 -85 -442 -91 -773 -4 -184 -1 -339 6 -420 101 -1117 698
-2106 1646 -2727 489 -320 980 -500 1587 -581 161 -21 552 -29 732 -15 888 72
1649 418 2294 1045 603 585 959 1299 1074 2149 30 218 32 678 5 892 -108 843
-457 1566 -1037 2145 -617 618 -1369 975 -2242 1065 -133 14 -577 19 -703 8z
m520 -73 c529 -33 966 -146 1410 -365 374 -185 661 -391 960 -690 560 -560
897 -1253 1011 -2080 26 -186 26 -694 0 -880 -96 -697 -333 -1261 -752 -1790
-114 -144 -427 -455 -579 -577 -558 -445 -1218 -706 -1944 -769 -174 -15 -596
-6 -756 15 -635 87 -1179 303 -1688 670 -499 361 -914 870 -1163 1427 -392
878 -413 1917 -56 2806 123 305 328 656 538 918 113 142 388 417 529 529 637
507 1398 775 2250 794 44 1 152 -3 240 -8z"/>
<path d="M4973 8431 c-48 -30 -67 -64 -60 -112 7 -51 35 -82 104 -114 81 -39
123 -80 123 -121 0 -49 -29 -74 -84 -74 -53 0 -99 33 -118 85 -17 50 -28 43
-28 -18 0 -62 9 -70 97 -88 57 -12 63 -11 109 12 85 42 107 129 49 197 -13 16
-58 45 -99 65 -41 20 -79 45 -85 56 -29 53 3 105 66 105 28 0 42 -8 68 -35 18
-20 34 -42 37 -50 11 -30 20 2 13 49 -6 42 -10 50 -28 50 -12 1 -47 4 -77 7
-45 5 -61 2 -87 -14z"/>
<path d="M4508 8392 c-128 -27 -167 -42 -111 -42 24 0 33 -6 42 -27 8 -22 61
-311 61 -337 0 -3 -14 -15 -31 -25 -35 -22 -25 -34 17 -22 16 5 87 17 156 27
l127 18 10 45 c5 25 8 48 5 50 -2 2 -24 -14 -48 -37 -42 -39 -55 -44 -143 -56
-19 -3 -23 4 -33 63 -6 36 -14 78 -16 93 -5 23 -1 28 19 33 46 12 91 2 102
-22 24 -56 33 -10 14 77 -12 56 -24 64 -32 21 -5 -24 -14 -32 -44 -40 -69 -19
-69 -19 -83 69 -7 45 -10 83 -7 86 3 3 29 8 59 11 48 5 57 2 85 -21 36 -30 59
-34 48 -8 -4 9 -12 29 -17 45 -12 33 -16 33 -180 -1z"/>
<path d="M5552 8403 c-11 -10 -62 -94 -113 -188 -50 -93 -96 -176 -101 -182
-6 -7 -21 -13 -34 -13 -13 0 -24 -4 -24 -9 0 -10 142 -33 150 -24 3 3 0 8 -6
10 -6 2 -20 10 -30 18 -18 13 -18 16 14 80 l32 66 48 -7 c82 -12 88 -17 96
-73 4 -28 9 -58 12 -66 4 -10 -3 -18 -21 -25 -15 -6 -25 -13 -22 -17 9 -8 156
-31 162 -25 3 3 -6 14 -18 26 -18 17 -31 60 -66 221 -25 110 -47 206 -51 213
-5 10 -11 9 -28 -5z m-3 -154 c7 -38 11 -72 10 -74 -5 -4 -88 11 -95 17 -6 6
58 128 67 128 3 0 11 -32 18 -71z"/>
<path d="M5940 8344 c0 -3 10 -14 21 -23 l21 -17 -41 -155 c-53 -197 -58 -209
-87 -209 -51 0 -29 -18 51 -42 84 -25 105 -24 63 4 l-21 14 18 72 c10 40 22
78 27 85 15 25 41 -9 72 -98 18 -50 41 -103 51 -118 19 -29 63 -57 90 -57 13
0 12 5 -5 28 -12 16 -39 76 -60 133 l-38 104 26 3 c46 5 78 22 95 51 21 36 21
64 2 105 -20 42 -66 67 -183 100 -102 29 -102 29 -102 20z m187 -73 c92 -57
12 -205 -93 -171 -19 6 -34 12 -34 13 0 1 8 32 19 68 33 116 46 127 108 90z"/>
<path d="M4053 8278 c-79 -28 -143 -54 -143 -58 0 -5 12 -10 28 -12 25 -3 30
-11 64 -113 20 -60 44 -138 54 -173 l17 -62 -23 -25 c-30 -32 -22 -31 81 4 46
16 112 37 147 46 l62 18 0 53 c0 30 -3 54 -7 54 -5 -1 -17 -19 -28 -42 -22
-44 -64 -72 -126 -83 l-37 -7 -26 79 c-14 43 -26 83 -26 90 0 6 23 19 52 29
l52 17 22 -29 c34 -42 38 -24 12 51 -26 72 -41 86 -46 42 -4 -30 -32 -54 -78
-63 -29 -6 -30 -4 -52 63 -12 38 -22 72 -22 76 0 13 72 37 109 37 20 0 49 -9
65 -19 42 -28 48 -17 19 34 -13 25 -25 44 -26 44 -1 -1 -66 -24 -144 -51z"/>
<path d="M6639 8034 c-24 -21 -97 -89 -161 -152 -109 -106 -120 -114 -148
-109 -47 10 -36 -6 25 -36 60 -29 87 -35 67 -15 -22 22 -13 52 29 94 l41 42
59 -27 59 -26 0 -47 c0 -67 -14 -98 -45 -98 -42 0 -29 -14 50 -53 49 -24 75
-32 75 -24 0 7 -5 18 -11 24 -8 8 -7 69 6 228 12 147 14 220 7 227 -7 7 -24
-2 -53 -28z m-14 -128 l-7 -75 -47 22 c-25 12 -48 23 -50 25 -3 1 19 27 49 57
30 30 56 53 58 50 2 -2 1 -37 -3 -79z"/>
<path d="M3328 7927 c-15 -12 -14 -28 25 -221 35 -175 39 -210 28 -227 -20
-33 -8 -32 52 3 59 34 74 54 33 44 -31 -8 -46 11 -61 79 l-13 54 59 35 59 35
50 -40 c51 -40 59 -56 38 -77 -30 -30 8 -21 72 17 68 41 90 64 50 54 -11 -3
-32 3 -47 12 -36 23 -214 157 -274 207 -53 43 -49 42 -71 25z m93 -129 c32
-24 59 -45 59 -48 0 -6 -91 -62 -95 -58 -5 8 -32 148 -28 148 3 0 32 -19 64
-42z"/>
<path d="M4885 7759 c-740 -69 -1401 -423 -1855 -995 -281 -353 -464 -779
-536 -1249 -26 -170 -27 -598 0 -770 23 -151 83 -391 131 -521 91 -249 260
-545 432 -759 93 -115 282 -302 398 -395 320 -254 714 -436 1132 -524 207 -43
295 -51 553 -50 202 0 268 4 377 22 390 64 751 202 1066 408 582 381 981 959
1131 1637 42 189 58 353 58 577 -1 427 -87 797 -271 1164 -139 277 -265 452
-489 680 -256 261 -566 464 -914 601 -374 146 -823 210 -1213 174z m455 -79
c821 -74 1541 -512 1972 -1196 523 -832 512 -1936 -27 -2754 -254 -385 -610
-700 -1020 -901 -191 -93 -305 -136 -486 -183 -465 -119 -908 -113 -1374 20
-444 126 -815 350 -1145 690 -365 377 -589 823 -682 1360 -19 112 -22 165 -23
409 0 306 8 385 66 622 87 359 263 713 494 998 88 108 279 297 390 384 514
408 1186 609 1835 551z"/>
<path d="M3645 7040 c-11 -18 4 -28 55 -35 98 -13 151 -76 170 -200 7 -47 10
-305 8 -775 -3 -653 -5 -708 -22 -752 -24 -64 -72 -105 -133 -113 -26 -3 -55
-7 -63 -8 -8 -1 -16 -10 -18 -20 -3 -16 21 -17 382 -17 371 0 386 1 386 19 0
16 -9 19 -60 23 -74 5 -106 27 -140 94 -25 48 -25 52 -27 334 l-3 285 80 70
c44 38 83 71 87 72 4 1 88 -90 185 -202 l176 -203 -48 -41 c-66 -56 -145 -177
-171 -262 -17 -55 -20 -89 -17 -172 3 -96 6 -109 40 -179 29 -57 55 -92 111
-144 93 -88 180 -139 469 -273 236 -110 397 -196 432 -231 19 -19 19 -19 -9
-57 -16 -21 -56 -66 -88 -100 -32 -34 -56 -67 -52 -72 16 -27 52 -7 135 74
l87 86 38 -42 c63 -70 88 -138 93 -254 5 -113 -10 -187 -55 -264 -77 -132
-200 -208 -377 -231 -212 -29 -399 44 -554 216 -113 125 -199 302 -266 545
-24 88 -38 125 -50 127 -14 3 -16 -17 -15 -200 1 -112 5 -297 8 -413 l6 -210
74 -7 c42 -5 151 -31 252 -62 212 -66 311 -81 474 -73 259 14 415 77 570 232
130 130 185 259 185 435 0 169 -54 318 -153 426 l-52 57 -6 89 c-8 114 -41
182 -177 368 l-99 135 521 5 520 5 59 244 c47 194 57 245 46 252 -7 4 -16 6
-19 4 -3 -2 -30 -45 -60 -97 -70 -117 -199 -251 -283 -291 -96 -46 -196 -67
-324 -67 l-113 0 0 93 c0 52 -3 155 -7 231 l-6 136 -46 -5 c-51 -7 -172 24
-361 90 -175 61 -247 66 -420 29 -22 -4 -46 20 -227 235 l-203 240 58 54 c31
30 152 139 267 242 116 103 233 210 261 237 42 41 52 47 58 33 3 -9 6 -229 6
-489 l0 -473 75 -6 c49 -4 94 -14 131 -31 98 -45 94 -51 94 139 l0 165 133 0
c227 -1 324 -24 400 -98 52 -50 74 -89 88 -151 8 -40 15 -51 27 -49 15 3 17
34 20 313 1 170 0 316 -3 323 -11 28 -42 -6 -48 -53 -13 -90 -64 -156 -152
-197 -46 -21 -67 -23 -257 -26 l-208 -4 0 424 0 423 272 -5 c317 -6 334 -10
475 -106 109 -73 171 -141 257 -281 17 -27 34 -43 46 -43 11 0 20 5 20 11 0
17 -96 334 -124 409 l-24 65 -723 3 c-397 1 -726 -1 -731 -6 -14 -14 9 -34 53
-43 50 -11 92 -47 120 -101 l18 -36 -242 -220 c-133 -120 -357 -323 -497 -449
l-255 -230 -3 426 c-2 462 1 497 53 559 28 34 60 48 128 57 38 5 48 10 45 23
-3 16 -36 17 -380 20 -246 1 -379 -1 -383 -8z m1630 -1355 c189 -48 379 -225
459 -427 14 -36 26 -71 26 -77 0 -7 -52 -11 -159 -11 l-159 0 -93 113 c-51 61
-146 176 -211 254 -65 78 -118 144 -118 147 0 19 183 19 255 1z m-360 -312
c88 -102 185 -204 215 -228 30 -23 127 -87 216 -143 237 -150 337 -249 364
-363 7 -27 10 -52 8 -55 -3 -2 -43 20 -90 49 -47 29 -208 109 -358 177 -401
182 -489 240 -552 367 -42 85 -43 181 -3 301 15 45 30 82 34 81 3 0 78 -84
166 -186z"/>
<path d="M2952 7669 c-23 -22 -42 -44 -42 -50 0 -12 72 -220 96 -278 8 -19 12
-36 10 -38 -2 -3 -75 25 -161 61 l-156 67 -42 -40 c-43 -41 -46 -62 -6 -41 21
12 29 5 122 -91 140 -147 153 -164 139 -194 -8 -17 -8 -25 -1 -25 17 0 99 82
93 92 -4 6 -10 6 -17 -1 -26 -26 -56 -3 -206 161 l-34 37 154 -60 c211 -84
194 -82 168 -18 -41 105 -109 292 -106 295 1 2 54 -46 117 -105 112 -105 114
-109 98 -128 -21 -23 -23 -33 -5 -33 17 1 133 107 125 115 -3 4 -16 1 -28 -5
-19 -10 -33 -1 -146 106 -142 133 -152 146 -133 180 20 38 7 36 -39 -7z"/>
<path d="M7187 7640 c-52 -41 -54 -84 -8 -198 29 -72 27 -113 -5 -146 -49 -49
-122 -22 -145 53 -9 30 -8 44 5 75 30 72 15 72 -34 1 l-30 -43 36 -56 c38 -58
96 -96 145 -96 34 0 86 34 110 72 24 40 20 82 -16 159 -30 65 -32 119 -7 142
27 25 69 21 99 -9 23 -23 25 -31 20 -80 -3 -30 -3 -54 1 -54 8 0 52 63 52 74
0 4 -4 12 -10 19 -5 7 -22 27 -36 45 -50 62 -127 81 -177 42z"/>
<path d="M7660 7251 c-36 -22 -345 -141 -365 -141 -11 0 -26 5 -33 12 -6 6
-15 9 -18 5 -9 -9 77 -105 96 -106 11 -1 11 2 2 11 -26 26 -13 48 41 73 28 14
57 25 62 25 6 0 31 -20 55 -45 l44 -45 -19 -37 c-36 -66 -55 -85 -81 -79 -13
4 -24 3 -24 -1 0 -9 69 -96 97 -123 14 -13 15 -12 9 18 -5 28 8 60 90 219 52
102 94 193 92 202 -4 19 -27 24 -48 12z m-66 -115 l-36 -68 -39 38 -39 38 73
31 c39 18 73 31 74 30 2 -1 -14 -32 -33 -69z"/>
<path d="M2415 7104 c-46 -64 -54 -94 -15 -59 18 17 21 16 62 -8 24 -14 56
-37 72 -50 l29 -24 -54 -79 c-32 -46 -62 -79 -71 -78 -9 1 -41 18 -73 39 -48
32 -56 41 -51 61 4 13 2 24 -3 24 -13 0 -95 -120 -87 -128 4 -3 12 0 18 6 7 7
18 12 24 12 7 0 81 -43 164 -96 146 -93 152 -98 146 -125 -9 -46 6 -34 53 42
43 70 48 98 13 66 -10 -10 -22 -17 -27 -17 -6 0 -128 72 -143 85 -9 8 112 174
122 168 6 -3 39 -26 74 -50 58 -41 63 -47 57 -74 -4 -16 -4 -29 -2 -29 10 0
98 132 92 138 -3 3 -11 0 -17 -6 -7 -7 -18 -12 -25 -12 -8 0 -79 46 -159 102
-138 96 -145 103 -140 130 9 44 -9 33 -59 -38z"/>
<path d="M7913 6904 l2 -37 -145 -83 c-80 -46 -150 -84 -157 -84 -7 0 -16 8
-22 17 -5 10 -13 15 -17 11 -8 -8 117 -231 147 -262 17 -19 19 -19 63 -2 54
21 59 36 14 36 -43 0 -90 29 -117 74 -38 61 -31 70 128 157 79 44 148 79 154
79 6 0 19 -7 29 -17 10 -9 20 -14 23 -12 5 5 -91 159 -99 159 -3 0 -4 -16 -3
-36z"/>
<path d="M2090 6556 c-49 -65 -59 -109 -35 -159 34 -72 131 -87 201 -30 101
81 130 90 178 52 39 -31 37 -88 -7 -135 -27 -29 -42 -37 -87 -43 l-55 -8 45
-21 c59 -28 65 -28 93 11 110 146 77 287 -66 287 -37 0 -51 -6 -88 -39 -60
-53 -105 -74 -138 -66 -65 16 -79 65 -33 116 23 26 38 33 80 37 29 2 52 8 52
12 0 6 -82 40 -96 40 -2 0 -22 -24 -44 -54z"/>
<path d="M7933 6445 c-32 -16 -61 -41 -79 -67 -26 -38 -29 -49 -29 -128 0 -80
2 -89 35 -144 55 -90 58 -92 129 -66 62 23 91 22 91 -5 0 -8 5 -15 10 -15 15
0 13 14 -21 110 -39 111 -65 125 -33 19 3 -12 -10 -22 -56 -39 -33 -12 -67
-20 -75 -16 -9 3 -25 27 -37 52 -40 92 -7 174 92 228 61 33 160 45 200 24 43
-23 70 -75 70 -134 0 -46 -5 -59 -31 -89 -40 -45 -28 -58 29 -33 41 18 42 20
42 67 0 67 -26 145 -61 185 -68 78 -180 98 -276 51z"/>
<path d="M1935 6191 c-12 -20 -84 -275 -79 -280 2 -3 11 5 20 17 8 12 22 22
30 22 20 0 288 -77 331 -95 25 -11 30 -18 26 -34 -3 -12 -1 -21 6 -21 6 0 11
2 11 4 0 2 18 62 40 132 22 71 40 136 40 145 0 15 -69 53 -79 43 -2 -2 7 -24
20 -48 22 -42 23 -48 11 -93 -7 -26 -17 -52 -22 -57 -11 -11 -180 33 -180 47
0 4 7 23 14 42 13 29 20 35 45 35 51 0 35 18 -36 39 -71 21 -93 19 -55 -6 25
-17 29 -55 9 -89 l-12 -21 -80 26 c-78 25 -80 27 -77 55 5 49 28 81 71 101 45
20 53 35 19 35 -13 0 -33 3 -44 6 -12 3 -25 1 -29 -5z"/>
<path d="M7944 5878 c3 -18 8 -52 12 -75 7 -46 21 -57 26 -20 2 18 10 23 45
25 22 2 56 -1 74 -5 29 -8 35 -15 46 -58 7 -28 13 -55 13 -62 0 -14 -108 -83
-131 -83 -9 0 -19 10 -22 22 -13 49 -18 4 -7 -64 16 -101 20 -109 33 -68 11
30 33 47 197 145 135 81 185 116 185 130 0 17 -22 23 -198 51 -251 41 -245 39
-253 69 -9 37 -27 31 -20 -7z m358 -107 c18 -7 12 -13 -46 -45 -37 -21 -69
-36 -70 -34 -1 1 -7 25 -13 52 l-11 48 60 -6 c33 -4 69 -11 80 -15z"/>
<path d="M1828 5724 c-12 -20 -20 -134 -9 -134 6 0 11 7 11 15 0 8 4 15 10 15
9 0 152 -162 158 -180 3 -8 -73 -5 -145 6 -27 4 -33 9 -33 29 0 14 -4 25 -8
25 -9 0 -32 -151 -25 -160 2 -3 12 5 21 17 l17 22 177 -14 c98 -7 182 -17 188
-20 5 -3 10 -15 10 -26 0 -10 5 -19 10 -19 6 0 10 15 10 34 0 18 3 54 6 80 7
46 -8 67 -19 26 -4 -16 -13 -20 -49 -19 -23 0 -63 4 -87 7 l-43 7 84 57 c97
66 118 76 118 57 1 -11 3 -10 9 1 15 25 26 164 12 156 -6 -4 -11 -13 -11 -20
0 -18 -43 -56 -150 -130 l-95 -66 -27 32 c-58 69 -113 150 -124 180 -6 18 -13
28 -16 22z"/>
<path d="M8431 5358 c-8 -22 -17 -26 -72 -31 -34 -4 -115 -7 -181 -7 -117 0
-119 0 -128 25 -19 49 -25 23 -22 -92 3 -149 13 -184 66 -237 69 -69 164 -83
254 -37 91 47 116 105 113 266 -2 121 -12 160 -30 113z m-3 -100 c7 -7 12 -35
12 -64 0 -97 -66 -153 -190 -162 -123 -9 -187 42 -197 158 -7 72 -15 69 187
73 80 1 152 4 161 5 8 1 20 -3 27 -10z"/>
<path d="M8104 4811 c-116 -53 -158 -204 -88 -318 49 -79 157 -119 252 -94
134 37 200 207 126 328 -55 91 -189 130 -290 84z m153 -66 c29 -9 69 -31 94
-54 42 -37 44 -41 44 -95 0 -49 -4 -59 -30 -85 -60 -60 -165 -65 -266 -13 -68
35 -92 68 -92 127 0 109 109 162 250 120z"/>
<path d="M1980 4730 c-11 -11 -20 -29 -20 -40 0 -27 35 -60 64 -60 32 0 56 25
56 59 0 55 -61 80 -100 41z"/>
<path d="M3234 2870 c-12 -4 -31 -21 -43 -36 -31 -40 -27 -92 14 -174 43 -85
45 -127 9 -164 -38 -38 -77 -35 -121 9 -33 33 -35 39 -30 83 2 26 8 55 12 65
15 36 -13 15 -43 -33 -35 -56 -39 -43 41 -132 44 -48 106 -66 161 -47 92 32
104 113 37 248 -22 47 -41 91 -41 97 0 7 10 25 23 40 19 22 28 25 54 20 50
-11 76 -48 77 -106 1 -28 4 -50 8 -50 4 0 17 18 28 39 l20 40 -36 40 c-52 57
-119 82 -170 61z"/>
<path d="M6541 2624 c-89 -45 -138 -133 -128 -231 9 -88 65 -166 139 -198 97
-40 235 6 292 98 72 116 31 278 -85 337 -58 30 -151 27 -218 -6z m118 -14 c70
-20 152 -128 167 -218 13 -80 -34 -150 -115 -172 -78 -21 -159 35 -212 145
-39 81 -40 150 -2 196 45 53 96 68 162 49z"/>
<path d="M3694 2528 c-243 -213 -266 -230 -295 -224 -45 9 -34 -9 27 -44 53
-30 82 -34 56 -8 -20 20 -14 43 21 74 64 59 60 59 125 23 l59 -33 -12 -61
c-14 -77 -20 -87 -51 -79 -48 12 -22 -12 51 -49 42 -20 78 -37 80 -37 3 0 -1
13 -9 29 -14 26 -13 48 13 238 28 201 28 222 0 223 -3 0 -32 -23 -65 -52z m13
-60 c-3 -18 -9 -52 -12 -75 l-7 -42 -49 25 -49 25 56 49 c32 28 59 50 62 50 2
0 2 -15 -1 -32z"/>
<path d="M4084 2429 c-2 -4 5 -13 16 -19 11 -6 20 -20 19 -33 0 -12 -26 -96
-58 -187 -49 -140 -61 -165 -79 -168 -12 -2 -22 -7 -22 -11 0 -6 274 -101 293
-101 7 0 57 97 57 111 0 6 -17 -3 -38 -19 -21 -17 -50 -34 -65 -37 -26 -7
-122 19 -132 35 -6 10 102 338 117 358 6 6 19 12 29 12 39 0 17 16 -56 41 -42
14 -78 22 -81 18z"/>
<path d="M5862 2349 c-67 -22 -120 -44 -117 -49 3 -4 14 -6 24 -3 13 3 24 -3
35 -19 17 -26 116 -313 116 -336 0 -9 -7 -24 -17 -34 -22 -25 -9 -23 96 8 192
58 261 125 261 249 0 132 -91 225 -220 224 -37 0 -95 -13 -178 -40z m202 -3
c73 -30 135 -153 122 -241 -13 -81 -81 -145 -159 -149 l-32 -1 -63 179 c-38
109 -59 183 -54 188 16 16 85 37 120 38 18 0 47 -6 66 -14z"/>
<path d="M4652 2264 c-86 -43 -132 -121 -132 -221 1 -177 172 -276 365 -211
39 13 40 14 42 63 3 73 10 92 35 98 42 11 5 26 -70 28 -80 2 -100 -5 -57 -21
27 -10 27 -13 22 -63 -8 -69 -39 -97 -105 -97 -96 0 -152 71 -152 193 0 37 6
82 13 100 32 75 113 136 182 137 48 0 94 -35 119 -91 12 -27 25 -47 29 -43 4
4 7 32 7 63 l0 56 -73 18 c-102 25 -162 22 -225 -9z"/>
<path d="M5372 2252 c-7 -5 -18 -30 -26 -58 -91 -329 -100 -357 -131 -376
l-30 -18 72 0 c39 0 75 5 78 10 3 6 -3 10 -13 10 -39 0 -45 23 -25 97 l18 68
65 3 65 3 28 -56 c32 -65 33 -81 10 -94 -31 -17 -7 -22 71 -15 75 7 95 17 56
29 -15 5 -51 67 -120 206 -55 109 -101 199 -103 199 -1 0 -8 -4 -15 -8z m56
-227 c-2 -1 -27 -5 -56 -7 -38 -4 -52 -2 -49 6 3 7 13 41 23 75 l17 64 34 -68
c19 -37 33 -68 31 -70z"/>
</g>
</svg>
